<svg width="98" height="96" fill="none" xmlns="http://www.w3.org/2000/svg"><g clip-path="url(#a)"><path d="M48.688 47.996a16 16 0 1 1 32 0 16 16 0 0 1-32 0Z" fill="#7E4CFF"/><path d="M16.691 80.004a16 16 0 0 1 16-16h16v16a16 16 0 1 1-32 0Z" fill="#5F3EB7"/><path d="M48.688 0v32h16a16 16 0 1 0 0-32h-16Z" fill="#9268FF"/><path d="M16.691 16a16 16 0 0 0 16 16h16V0h-16a16 16 0 0 0-16 16Z" fill="#7E4CFF"/><path d="M16.691 47.996a16 16 0 0 0 16 16h16v-32h-16a16 16 0 0 0-16 16Z" fill="#9268FF"/></g><defs><clipPath id="a"><path fill="#fff" transform="translate(16.691)" d="M0 0h64v96H0z"/></clipPath></defs></svg>