<svg width="1098" height="491" fill="none" xmlns="http://www.w3.org/2000/svg"><g clip-path="url(#a)"><path d="M1087.19 525H10.836m1076.354 0H1733m-645.81 0-66.21-91.831-51.528-71.472-41.243-57.207-33.766-46.817-28.139-39.039-23.807-33.033-20.415-28.319-17.71-24.564-15.504-21.501-13.683-18.98-12.166-16.846-10.869-15.076-9.794-13.573-8.855-12.282-8.055-11.171-7.366-10.21-6.731-9.34-6.207-8.619H403.121l-6.373 8.62-6.924 9.338-7.559 10.21-8.276 11.172-9.104 12.282-10.041 13.573-11.173 15.076-12.469 16.847-14.042 18.979-15.917 21.501-18.18 24.564-20.966 28.319-24.47 33.033-28.911 39.039-34.676 46.817-42.346 57.207-52.912 71.472L10.808 525H-635m2367.97 0-146.7-91.831H1209.4l-72.41-71.472-57.96-57.207-47.45-46.817-39.562-39.039-33.464-33.033-28.69-28.319-24.883-24.564-21.766-21.501-19.229-18.98-17.076-16.846-15.283-15.076-13.765-13.573H289.408l-14.014 13.573-15.587 15.076L242.4 92.238l-19.587 18.979-22.18 21.501-25.352 24.564-29.242 28.319-34.125 33.033-40.304 39.039-48.36 46.817-59.064 57.207-73.794 71.472h-376.864L-634.972 525M1380.69 304.49H-278.385M1517.74 525l-119.87-91.831-93.29-71.472m0 0H-203.321m1507.901 0h167.53l114.18 71.472m-281.71-71.472-74.68-57.207-61.13-46.817-50.96-39.039-43.11-33.033M-203.321 361.697l-94.678 71.472L-419.657 525m216.336-163.303 75.781-57.207 62.043-46.817 51.725-39.039 43.78-33.033M-203.32 361.697h-167.535m168.225-104.024H1305.9m-1508.531 0 63.118-39.039 53.436-33.033H30.008m-232.639 72.072-75.726 46.817-92.499 57.207M1074.7 185.601H30.008m1044.692 0h116.08l52.77 33.033m-168.85-33.033-36.97-28.319-32.06-24.564-28.053-21.501-24.745-18.98-22.015-16.846-19.697-15.076-17.738-13.573h-75.505L805.475 34.46l-11.311-11.171-10.345-10.21-9.462-9.34H333.905l-9.655 9.34-10.538 10.21-11.532 11.17-12.689 12.283h-75.506l-17.986 13.573-20.001 15.076-22.345 16.847-25.132 18.979-28.469 21.501-32.525 24.564-37.519 28.319m-400.864 176.096-115.561 71.472M1243.55 218.634H-139.485m1383.035 0 62.38 39.039 74.81 46.817 91.4 57.207M1302.51 525l-93.05-91.831H-109.553L-204.369 525m164.114-367.748H1145.51M-.558 132.688H1106.28m-34.34-21.501H34.202M463.59-4.94l-3.862 8.62-4.193 9.338-4.579 10.21-4.994 11.172-5.517 12.282-6.097 13.574-6.759 15.074-7.559 16.847-8.496 18.98-9.628 21.501-11.007 24.564-12.69 28.319-14.814 33.033-17.49 39.039-20.994 46.817-25.628 57.207-32.029 71.472-41.159 91.832M64.796 92.177h976.764M523.924-4.97l-1.352 8.619-1.462 9.339-1.6 10.21-1.738 11.172-1.904 12.282-2.124 13.574-2.345 15.074-2.621 16.847-2.951 18.98-3.338 21.501-3.835 24.564-4.414 28.319-5.159 33.033-6.069 39.039-7.31 46.817-8.911 57.207-11.145 71.472-14.317 91.832m573.281-449.61H92.051m922.559 0 26.93 16.846 30.29 18.98 34.34 21.501 39.23 24.564 45.27 28.319m-176.06-110.21L990.5 60.225l-21.711-13.574h-75.505L877.256 34.37l-14.594-11.171-13.324-10.211H258.455l-13.517 10.21-14.814 11.172-16.277 12.282h-75.505l-21.959 13.574L91.996 75.3 64.741 92.147l-30.677 18.98-34.76 21.501-39.697 24.564-45.794 28.319M990.528 60.226H116.466M915.05 12.988l-14.952-9.339L886.36-4.97H765.557M915.05 12.988l16.304 10.21 17.849 11.172 19.641 12.282M915.05 12.988h-65.656l-12.222-9.339h-62.925l-8.718-8.619h-60.415m244.033 39.31H158.233m0 0L138.37 46.622m19.863-12.282 18.069-11.171m754.997 0H176.302m0 0 16.497-10.21M403.038-5H282.235m0 0-11.393 8.619-12.387 9.34h-65.656M282.235-5H221.82l-13.904 8.619m-15.117 9.34 15.117-9.34M342.651-5l-8.884 8.619H207.916M825.889-5l11.228 8.619h62.926m-28.222 521.292-39.366-91.832-30.649-71.472-24.525-57.207-20.083-46.817-16.745-39.039-14.152-33.033-12.139-28.319-10.538-24.564-9.213-21.501-8.139-18.98-7.228-16.847-6.455-15.074-5.821-13.574-5.269-12.282-4.8-11.171-4.386-10.211-4-9.339-3.697-8.619m-60.415 0 1.186 8.619 1.269 9.339 1.407 10.21 1.517 11.172 1.683 12.282 1.848 13.574L595.18 75.3l2.29 16.847 2.593 18.98 2.925 21.501 3.338 24.564 3.862 28.319 4.496 33.033 5.324 39.039 6.401 46.817 7.807 57.207 9.738 71.472 12.525 91.832" stroke="#282828" stroke-width="1.085" stroke-linecap="round" stroke-linejoin="round"/></g><defs><clipPath id="a"><path fill="#fff" d="M0 0h1098v491H0z"/></clipPath></defs></svg>