<svg width="363" height="334" fill="none" xmlns="http://www.w3.org/2000/svg"><g clip-path="url(#a)"><mask id="c" style="mask-type:alpha" maskUnits="userSpaceOnUse" x="0" y="0" width="363" height="334"><path fill="url(#b)" d="M0 0h363v334H0z"/></mask><g mask="url(#c)"><path d="M181.586 21.324v125.86m10.528-.439 53.541-125.324m-73.511 125.836L110.361 21.171M337 22.5 202.57 147.403m136.172 19.1H203.357m-.236 10.391 136.407 50.347M337 311 201.312 185.749m1.652-27.662 136.722-57.737M26 23l134.115 124.33M23.472 166.942h135.542m.865 9.586L23 226.948m137.036-68.495L23.157 99.618M25.5 311l135.165-124.3m20.057 127.038V186.773m11.47.22L246.598 314M171.83 186.993l-62.19 126.305m50.475-166.261h42.77v39.809h-42.77v-39.809Zm-17.611-16.391h77.992v72.592h-77.992v-72.592Zm-18.869-17.563h115.73v107.718h-115.73V113.083Zm-22.643-21.076h161.016v149.869H100.992V92.007Zm-24.53-22.831h210.076v195.532H76.462V69.176ZM50.675 45.173h261.65v243.538H50.675V45.173ZM33 313.884h297c5.523 0 10-4.477 10-10V30c0-5.523-4.477-10-10-10H33c-5.523 0-10 4.477-10 10v273.884c0 5.523 4.477 10 10 10Z" stroke="#282828" stroke-width="1.1" stroke-linejoin="round"/></g></g><defs><linearGradient id="b" x1="181.5" y1="65.5" x2="181.5" y2="334" gradientUnits="userSpaceOnUse"><stop stop-color="#D9D9D9" stop-opacity="0"/><stop offset="1" stop-color="#737373"/></linearGradient><clipPath id="a"><path fill="#fff" d="M0 0h363v334H0z"/></clipPath></defs></svg>